<svg xmlns="http://www.w3.org/2000/svg" version="1.1" xmlns:xlink="http://www.w3.org/1999/xlink" xmlns:svgjs="http://svgjs.dev/svgjs" width="1440" height="560" preserveAspectRatio="none" viewBox="0 0 1440 560"><g mask="url(&quot;#SvgjsMask1000&quot;)" fill="none"><rect width="1440" height="560" x="0" y="0" fill="#0e2a47"></rect><path d="M 0,88 C 57.6,119.2 172.8,244.8 288,244 C 403.2,243.2 460.8,86 576,84 C 691.2,82 748.8,236.2 864,234 C 979.2,231.8 1036.8,82.8 1152,73 C 1267.2,63.2 1382.4,162.6 1440,185L1440 560L0 560z" fill="#184a7e"></path><path d="M 0,535 C 96,497.6 288,364.8 480,348 C 672,331.2 768,446 960,451 C 1152,456 1344,388.6 1440,373L1440 560L0 560z" fill="#2264ab"></path></g><defs><mask id="SvgjsMask1000"><rect width="1440" height="560" fill="#ffffff"></rect></mask></defs></svg>